<svg width="22" height="33" viewBox="0 0 22 33" fill="none" xmlns="http://www.w3.org/2000/svg">
<path d="M10.6144 32.8604C9.16539 32.9354 7.71762 32.6906 6.37373 32.1436C5.02984 31.5965 3.82275 30.7605 2.83803 29.6948C-0.465222 25.9443 -0.0179071 20.198 0.068115 19.269V7.60436C0.068115 4.97208 1.35845 0 6.21009 0C11.0617 0 12.3349 4.97208 12.3349 7.60436V19.3722C12.3349 19.8285 12.1536 20.2661 11.831 20.5887C11.5083 20.9114 11.0707 21.0926 10.6144 21.0926C10.1581 21.0926 9.72054 20.9114 9.39789 20.5887C9.07525 20.2661 8.89399 19.8285 8.89399 19.3722V7.60436C8.89399 7.44952 8.89398 3.44088 6.21009 3.44088C3.5262 3.44088 3.509 7.44952 3.509 7.62156V19.3722C3.51746 19.4407 3.51746 19.5101 3.509 19.5786C3.509 19.5786 2.92405 24.6023 5.4531 27.4239C6.11298 28.1166 6.91792 28.6547 7.81025 28.9998C8.70258 29.3448 9.66018 29.4882 10.6144 29.4196C11.5687 29.4882 12.5263 29.3448 13.4186 28.9998C14.3109 28.6547 15.1159 28.1166 15.7758 27.4239C18.2876 24.6023 17.7199 19.6302 17.7199 19.5786C17.7114 19.5101 17.7114 19.4407 17.7199 19.3722V1.72044C17.7199 1.26415 17.9011 0.826551 18.2238 0.503906C18.5464 0.18126 18.984 0 19.4403 0C19.8966 0 20.3342 0.18126 20.6568 0.503906C20.9795 0.826551 21.1607 1.26415 21.1607 1.72044V19.269C21.2468 20.198 21.6941 25.9443 18.3908 29.6948C17.4061 30.7605 16.199 31.5965 14.8551 32.1436C13.5112 32.6906 12.0635 32.9354 10.6144 32.8604Z" fill="#5CE5B7"/>
</svg>
