<svg width="42" height="12" viewBox="0 0 42 12" fill="none" xmlns="http://www.w3.org/2000/svg">
<path d="M6.18679 0C2.87828 0 0.186646 2.69149 0.186646 6C0.186646 9.30851 2.87828 12 6.18679 12C9.4953 12 12.1868 9.30851 12.1868 6C12.1868 2.69149 9.49516 0 6.18679 0ZM6.18679 9.34538C4.34193 9.34538 2.84112 7.84457 2.84112 5.99985C2.84112 4.15514 4.34193 2.65433 6.18679 2.65433C8.03151 2.65433 9.53232 4.15514 9.53232 5.99985C9.53232 7.84457 8.03136 9.34538 6.18679 9.34538Z" fill="#5CE5B7"/>
<path d="M21.0933 0C17.7848 0 15.0933 2.69149 15.0933 6C15.0933 9.30851 17.7848 12 21.0933 12C24.4018 12 27.0933 9.30851 27.0933 6C27.0933 2.69149 24.4016 0 21.0933 0ZM21.0933 9.34538C19.2485 9.34538 17.7477 7.84457 17.7477 5.99985C17.7477 4.15514 19.2485 2.65433 21.0933 2.65433C22.938 2.65433 24.4388 4.15514 24.4388 5.99985C24.4388 7.84457 22.9378 9.34538 21.0933 9.34538Z" fill="#5CE5B7"/>
<path d="M35.9999 0C32.6914 0 29.9999 2.69149 29.9999 6C29.9999 9.30851 32.6914 12 35.9999 12C39.3084 12 42 9.30851 42 6C42 2.69149 39.3082 0 35.9999 0ZM35.9999 9.34538C34.1552 9.34538 32.6544 7.84457 32.6544 5.99985C32.6544 4.15514 34.1552 2.65433 35.9999 2.65433C37.8447 2.65433 39.3456 4.15514 39.3456 5.99985C39.3456 7.84457 37.8446 9.34538 35.9999 9.34538Z" fill="#5CE5B7"/>
</svg>
