<svg width="103" height="93" viewBox="0 0 103 93" fill="none" xmlns="http://www.w3.org/2000/svg">
<path d="M70.9289 62.2526C67.2535 65.0783 56.847 66.9494 51.491 66.9494C46.0938 66.9494 35.557 65.0455 31.9725 62.177C31.1898 61.5469 29.9039 61.7873 29.4044 62.6594C29.0972 63.1915 29.0988 63.8473 29.4062 64.376C34.0756 72.4358 42.3309 77.2492 51.491 77.2492C60.6013 77.2492 68.8174 72.4907 73.4986 64.5098C73.8145 64.0652 73.902 63.4832 73.7149 62.9477C73.3288 61.8493 71.7633 61.4872 70.9289 62.2526ZM51.491 73.8162C45.8896 73.8162 40.676 71.7286 36.6711 68.0361C41.8434 69.6 48.0405 70.3828 51.491 70.3828C54.9433 70.3828 61.1336 69.6016 66.3059 68.0414C62.3026 71.7321 57.0909 73.8162 51.491 73.8162Z" fill="#3C3C3C"/>
<path d="M102.003 19.5133C101.589 19.3226 95.9695 16.8003 86.5248 16.0143C77.698 5.82775 64.9771 0 51.4912 0C38.0072 0 25.2865 5.82936 16.4597 16.0155C7.02392 16.8029 1.41042 19.3228 0.997209 19.5133C0.38967 19.7947 0 20.4043 0 21.072V26.8452C0 27.7774 0.74333 28.5378 1.67375 28.5618C3.80758 28.6151 4.33465 31.3549 4.34833 31.4321C4.71829 33.8655 5.19989 36.1138 5.87885 38.1605C5.39181 40.8848 5.14155 43.639 5.14155 46.3494C5.14155 71.9071 25.9339 92.6994 51.4916 92.6994C77.0492 92.6994 97.8416 71.9071 97.8416 46.3494C97.8416 43.6475 97.5947 40.9079 97.1117 38.1957C97.7937 36.1472 98.2765 33.8967 98.6464 31.4613C98.6517 31.4337 99.1562 28.6151 101.326 28.5618C102.256 28.5378 103 27.7772 103 26.8452V21.072C103 20.4043 102.61 19.7947 102.003 19.5133ZM51.4912 3.4332C62.8411 3.4332 73.6082 7.89197 81.612 15.7858C75.4338 15.7208 68.0438 16.4647 59.7122 18.8072C59.6086 18.8361 59.5052 18.8659 59.4016 18.8953C59.0122 19.0063 58.6205 19.121 58.2268 19.2393C58.1033 19.2763 57.9798 19.3127 57.8562 19.3503C57.3754 19.497 56.8926 19.6473 56.4062 19.8048C56.3987 19.8072 56.3911 19.8094 56.3837 19.8118C55.9413 19.9548 55.4939 20.076 55.0432 20.1792C53.8779 20.4461 52.6893 20.5817 51.5004 20.5817C49.9136 20.5817 48.3269 20.3413 46.794 19.8655C46.7348 19.8472 46.6751 19.8309 46.616 19.8118C46.1185 19.6507 45.625 19.4972 45.1337 19.3475C45.0191 19.3125 44.9044 19.2789 44.7897 19.2443C44.3817 19.1218 43.976 19.0029 43.5724 18.888C43.4823 18.8625 43.3922 18.8365 43.302 18.8112C34.9572 16.4635 27.5567 15.7194 21.3719 15.7858C29.3757 7.89197 40.143 3.4332 51.4912 3.4332ZM94.4084 46.3494C94.4084 70.0137 75.156 89.266 51.4918 89.266C27.8275 89.266 8.57495 70.0137 8.57495 46.3494C8.57495 45.4902 8.60231 44.6258 8.65582 43.7597C9.56271 45.0126 10.642 46.1331 11.9323 47.1143C11.9375 47.1183 11.9428 47.1221 11.9478 47.1261C12.0454 47.2002 12.1439 47.2734 12.2441 47.3458C12.3232 47.4035 12.4031 47.4609 12.4833 47.5174C12.4877 47.5204 12.4922 47.5234 12.4966 47.5267C15.3832 49.5547 19.1264 50.8237 23.931 51.469C24.1123 51.4936 24.2963 51.5165 24.4808 51.5392C24.5212 51.5443 24.5607 51.5497 24.6013 51.5545C24.8469 51.5841 25.095 51.6125 25.3467 51.639C27.193 51.835 28.9197 51.8323 30.53 51.665C41.6476 50.5106 47.2134 41.4718 48.1475 35.2117C48.2068 34.8146 48.2815 34.4545 48.368 34.1276C48.9168 32.0581 49.9484 31.3297 50.6565 31.0636C50.8309 30.9982 50.9846 30.9612 51.1079 30.9384C51.2481 30.9129 51.3481 30.906 51.3884 30.8998C51.4638 30.9032 51.5376 30.9032 51.6115 30.8998C51.6235 30.905 54.1883 30.7729 54.8525 35.2121C54.8692 35.324 54.8877 35.4366 54.9073 35.5501C54.9073 35.5501 54.9073 35.5501 54.9073 35.5503C54.9264 35.6601 54.9467 35.7708 54.9686 35.882C54.9734 35.9068 54.9789 35.9319 54.9839 35.9569C55.0014 36.0436 55.0191 36.1307 55.0384 36.2182C55.0461 36.2534 55.0543 36.2888 55.0624 36.324C55.0799 36.4021 55.0978 36.4801 55.1167 36.5588C55.1265 36.5996 55.137 36.6406 55.147 36.6817C55.1654 36.7553 55.1839 36.8289 55.2032 36.903C55.2148 36.9474 55.2271 36.9923 55.2392 37.0369C55.2585 37.1082 55.278 37.1794 55.2983 37.251C55.3116 37.2979 55.3253 37.3449 55.3392 37.392C55.3597 37.4618 55.3804 37.5316 55.4019 37.6018C55.417 37.6509 55.4323 37.7 55.4478 37.7491C55.4693 37.8175 55.4915 37.8859 55.514 37.9545C55.5307 38.0056 55.5476 38.0567 55.5649 38.108C55.5874 38.175 55.6107 38.2422 55.6343 38.3094C55.6528 38.3621 55.6711 38.4148 55.6902 38.4675C55.7142 38.5341 55.7389 38.6007 55.7636 38.6674C55.7836 38.721 55.8033 38.7743 55.8238 38.8278C55.8489 38.8936 55.8751 38.9596 55.901 39.0255C55.9228 39.0805 55.9443 39.1356 55.9664 39.1907C55.9924 39.2549 56.0193 39.319 56.0461 39.3832C56.0698 39.4402 56.0932 39.4969 56.1175 39.5538C56.1439 39.6156 56.1714 39.6773 56.1986 39.7391C56.2247 39.7986 56.2505 39.8582 56.2774 39.9179C56.3016 39.9714 56.3269 40.025 56.3517 40.0785C56.477 40.3498 56.6096 40.6216 56.7496 40.893C56.7655 40.9238 56.7808 40.9546 56.7969 40.9854C56.8409 41.0696 56.8864 41.1537 56.9318 41.238C56.9508 41.2732 56.9693 41.3082 56.9886 41.3434C57.0342 41.4269 57.0813 41.5102 57.1284 41.5935C57.1485 41.6289 57.1682 41.6645 57.1885 41.6999C57.2366 41.7838 57.2859 41.8677 57.3354 41.9514C57.3557 41.9856 57.3756 42.0198 57.3961 42.054C57.4474 42.1397 57.5 42.2252 57.5529 42.3107C57.5722 42.3421 57.5915 42.3732 57.611 42.4046C57.6661 42.4927 57.7223 42.5806 57.779 42.6684C57.7971 42.6961 57.815 42.7241 57.8331 42.7518C57.8924 42.8428 57.953 42.9335 58.0142 43.0238C58.03 43.0474 58.0461 43.0709 58.062 43.0944C58.1266 43.189 58.192 43.2831 58.2584 43.3773C58.2708 43.395 58.2835 43.4127 58.2962 43.4306C58.367 43.5304 58.4388 43.6296 58.512 43.7285C58.5191 43.7382 58.5263 43.7476 58.5334 43.7573C61.9531 48.374 67.7416 52.1928 76.1979 51.7527C76.2198 51.7515 76.2415 51.7511 76.2637 51.7499C76.4013 51.7424 76.5407 51.732 76.6799 51.7223C77.0012 51.7 77.3246 51.6738 77.6532 51.6388C77.902 51.6127 78.1476 51.5847 78.3907 51.5553C78.4965 51.5427 78.5999 51.5286 78.7047 51.5155C78.8224 51.5006 78.9411 51.4861 79.0573 51.4704C84.0116 50.8068 87.8373 49.4808 90.7593 47.3444C90.8502 47.2786 90.9402 47.212 91.0291 47.1448C91.0391 47.1372 91.0494 47.1295 91.0594 47.1217C92.3463 46.1452 93.4234 45.0303 94.3289 43.7845C94.3826 44.6429 94.4084 45.4978 94.4084 46.3494ZM99.5666 25.4116C96.7856 26.3284 95.541 29.2415 95.2561 30.9153C94.9018 33.2485 94.4532 35.3491 93.8149 37.2192C93.7775 37.291 93.7439 37.3655 93.7163 37.4433C92.763 40.1515 91.4131 42.2755 89.5239 43.909C89.5024 43.9275 89.4801 43.9454 89.4583 43.9637C89.3734 44.0361 89.2863 44.1069 89.1992 44.1775C86.7998 46.1022 83.4698 47.3913 78.7707 48.0455C78.6051 48.0684 78.4389 48.0909 78.2702 48.1121C78.2048 48.1203 78.1396 48.1286 78.0738 48.1366C77.8173 48.1678 77.5586 48.1978 77.2949 48.2255C69.4043 49.0495 64.4802 45.7513 61.6103 42.0493C61.6008 42.0371 61.5908 42.0248 61.5813 42.0125C59.4899 39.3001 58.4984 36.3779 58.2485 34.705C58.199 34.3732 58.1389 34.0578 58.0715 33.754C58.0654 33.7269 58.0604 33.6983 58.0542 33.6715C58.025 33.5442 57.9932 33.4215 57.9612 33.299C57.9518 33.2626 57.9431 33.2245 57.9335 33.1887C57.9017 33.0719 57.8675 32.959 57.8331 32.8463C57.8214 32.8079 57.8106 32.7679 57.7985 32.7299C57.7641 32.6214 57.7275 32.517 57.6907 32.4126C57.6768 32.3734 57.6639 32.3327 57.6498 32.2941C57.613 32.1935 57.5742 32.0968 57.5354 32C57.5197 31.9608 57.5046 31.9199 57.4885 31.8813C57.4499 31.7886 57.4094 31.6995 57.369 31.6101C57.3509 31.5703 57.3334 31.5293 57.3151 31.49C57.2752 31.4053 57.2338 31.3239 57.1922 31.2426C57.1714 31.202 57.1513 31.1601 57.1302 31.1203C57.0896 31.0436 57.0477 30.9702 57.0059 30.8964C56.9821 30.8545 56.9588 30.8119 56.9347 30.7711C56.8942 30.7029 56.8526 30.6371 56.8109 30.5715C56.7836 30.5282 56.7566 30.4844 56.7289 30.4421C56.6892 30.3822 56.6488 30.3246 56.6084 30.2669C56.5768 30.2218 56.5456 30.1764 56.5136 30.1327C56.476 30.0814 56.4376 30.0319 56.3993 29.9825C56.3629 29.9354 56.3267 29.8879 56.2897 29.8424C56.2547 29.7994 56.2193 29.7579 56.1839 29.7163C56.142 29.667 56.1002 29.6179 56.0578 29.5707C56.0264 29.5357 55.9944 29.5019 55.9626 29.4681C55.9149 29.417 55.8668 29.3663 55.8186 29.3176C55.7914 29.2902 55.7638 29.2639 55.7365 29.2371C55.6822 29.1842 55.6274 29.1321 55.5723 29.0818C55.5506 29.0619 55.5285 29.0428 55.5065 29.0235C55.4448 28.9685 55.3826 28.915 55.3201 28.8637C55.3044 28.8509 55.2887 28.8384 55.273 28.8259C55.2032 28.7696 55.133 28.7151 55.0626 28.6628C55.0539 28.6563 55.0453 28.6501 55.0366 28.6439C54.9581 28.5863 54.8793 28.531 54.8002 28.4783C54.7996 28.4779 54.799 28.4775 54.7986 28.4773C53.6805 27.7323 52.5165 27.465 51.6477 27.465C51.6094 27.465 51.5716 27.4664 51.5342 27.4676C51.5231 27.4678 51.5113 27.4676 51.5002 27.4678C49.5215 27.403 45.8791 28.7117 44.8466 34.1485C44.8122 34.3298 44.7803 34.5153 44.7519 34.7058C44.3677 37.2776 42.2284 42.8094 37.0337 45.9847C34.2218 47.7033 30.5156 48.7321 25.7057 48.2257C25.439 48.1976 25.1771 48.1672 24.9178 48.1356C24.8592 48.1284 24.8011 48.1211 24.7431 48.1137C24.5619 48.0907 24.3832 48.0666 24.2056 48.0421C19.4986 47.3838 16.167 46.0877 13.769 44.1504C13.73 44.1186 13.6914 44.0864 13.6527 44.0542C13.5797 43.9939 13.5069 43.9331 13.4355 43.8716C11.562 42.2372 10.2213 40.1165 9.27382 37.4143C9.24868 37.3433 9.2179 37.2755 9.1843 37.2096C8.54437 35.3344 8.09455 33.2266 7.73888 30.8847C7.45744 29.2367 6.2144 26.3286 3.4334 25.412V22.2361C7.09372 20.8903 20.5294 16.8252 39.3909 21.3411C39.4583 21.3574 39.5254 21.3731 39.5928 21.3896C39.8948 21.4626 40.1978 21.5375 40.5023 21.6151C40.9005 21.7169 41.299 21.8219 41.6975 21.9304C41.8719 21.9776 42.0469 22.0259 42.2222 22.0746C42.706 22.2096 43.19 22.3478 43.6744 22.4924C43.7543 22.5162 43.8348 22.5411 43.9148 22.5652C44.4624 22.7304 45.0102 22.9002 45.5584 23.0776H45.5602C47.4896 23.7025 49.4879 24.0183 51.4998 24.0183C53.4852 24.0183 55.455 23.7097 57.3593 23.1024C57.3865 23.0937 57.4143 23.0865 57.4414 23.0776C57.4448 23.0764 57.4483 23.0754 57.4519 23.0744C57.99 22.9004 58.5275 22.7342 59.0651 22.5721C59.154 22.5453 59.2433 22.5178 59.332 22.4912C59.8243 22.3446 60.3164 22.2039 60.808 22.0671C60.9569 22.0257 61.1058 21.9849 61.254 21.9446C61.6906 21.8257 62.1269 21.7111 62.5631 21.6C62.7944 21.5413 63.0245 21.4848 63.2543 21.4286C63.4709 21.3755 63.6876 21.3244 63.9041 21.2731C64.4104 21.154 64.9139 21.0392 65.4125 20.9321C65.4195 20.9307 65.4263 20.9291 65.4334 20.9277C83.3351 17.0877 96.0272 20.9345 99.5668 22.2365V25.4116H99.5666Z" fill="#3C3C3C"/>
<path d="M19.3866 24.5361L14.2366 29.6861C13.5653 30.3574 13.5653 31.4424 14.2366 32.1135C14.5714 32.4482 15.0109 32.6164 15.4503 32.6164C15.8899 32.6164 16.3292 32.4482 16.664 32.1135L21.814 26.9635C22.4853 26.2922 22.4853 25.2072 21.814 24.5361C21.1427 23.865 20.0577 23.865 19.3866 24.5361Z" fill="#3C3C3C"/>
</svg>
