<svg width="321" height="79" viewBox="0 0 321 79" fill="none" xmlns="http://www.w3.org/2000/svg">
<path d="M35.782 66.1212C52.5795 66.1212 66.1966 52.5196 66.1966 35.7412C66.1966 18.9628 52.5795 5.36118 35.782 5.36118C18.9844 5.36118 5.36731 18.9628 5.36731 35.7412C5.36731 52.5196 18.9844 66.1212 35.782 66.1212Z" stroke="#5CE5B7" stroke-width="9"/>
<path d="M34.5892 72.1973C33.35 72.1989 32.1563 71.7305 31.2496 70.8868C30.8067 70.4553 30.4608 69.9348 30.2346 69.3597C30.0084 68.7846 29.9071 68.1681 29.9376 67.5509V59.2113C29.9178 58.6592 30.0137 58.1092 30.2191 57.5963C30.4245 57.0834 30.7348 56.619 31.1303 56.2329C31.4993 55.7897 31.9531 55.4245 32.4651 55.1586C32.9771 54.8926 33.537 54.7313 34.1121 54.6841L34.4699 54.3267C34.5575 54.1463 34.679 53.9845 34.8278 53.8501C35.5134 52.8716 36.112 51.8352 36.6169 50.7525C37.0239 49.5867 37.3429 48.3919 37.571 47.1784V46.9401C37.571 46.4636 37.6903 44.9148 37.6903 42.5321V23.7083C37.6887 22.4705 38.1576 21.2782 39.0023 20.3725C39.4343 19.9302 39.9554 19.5846 40.5311 19.3587C41.1069 19.1327 41.7241 19.0316 42.342 19.062H57.7282C58.9675 19.0604 60.1611 19.5288 61.0679 20.3725C61.5107 20.8039 61.8567 21.3245 62.0829 21.8996C62.309 22.4747 62.4103 23.0912 62.3799 23.7083V54.8032C63.4574 54.9547 64.4375 55.508 65.1232 56.352C65.8263 57.1845 66.2071 58.2413 66.1966 59.3304V67.67C66.1982 68.9079 65.7293 70.1002 64.8846 71.0059C64.4681 71.4354 63.9667 71.7737 63.4123 71.9993C62.8579 72.2249 62.2626 72.3329 61.6642 72.3164C60.425 72.318 59.2314 71.8496 58.3246 71.0059C57.8818 70.5745 57.5358 70.0539 57.3096 69.4788C57.0834 68.9037 56.9822 68.2872 57.0126 67.67V63.9768H39.1216V67.67C39.1232 68.9079 38.6543 70.1002 37.8096 71.0059C36.8953 71.7438 35.7642 72.1623 34.5892 72.1973V72.1973ZM51.6453 54.6841H53.0766V28.2356H46.9936V45.2722C46.9815 46.5508 46.8618 47.8261 46.6358 49.0846C46.511 50.179 46.2711 51.2571 45.9202 52.3013C45.6816 53.0161 45.3238 53.731 45.0853 54.5649H51.6453V54.6841ZM70.0134 48.1315C69.9952 46.0767 70.3866 44.0388 71.1647 42.1366C71.9429 40.2344 73.0922 38.5059 74.5457 37.0517C75.977 35.5671 77.7031 34.3974 79.6132 33.6178C81.5234 32.8382 83.5755 32.4658 85.6382 32.5245C87.6953 32.5064 89.7355 32.8973 91.6399 33.6746C93.5443 34.4518 95.2748 35.5998 96.7306 37.0517C98.2169 38.4814 99.3879 40.2055 100.168 42.1134C100.949 44.0214 101.322 46.0712 101.263 48.1315C101.281 50.1863 100.89 52.2242 100.112 54.1264C99.3334 56.0286 98.1841 57.7571 96.7306 59.2113C95.3033 60.7013 93.578 61.8745 91.6669 62.6545C89.7558 63.4345 87.7016 63.8039 85.6382 63.7385C83.581 63.7566 81.5408 63.3657 79.6364 62.5884C77.732 61.8112 76.0015 60.6632 74.5457 59.2113C73.0594 57.7816 71.8884 56.0576 71.1079 54.1496C70.3274 52.2416 69.9546 50.1918 70.0134 48.1315ZM92.9138 48.1315C92.8982 46.2089 92.1267 44.3694 90.7656 43.0099C89.4045 41.6504 87.563 40.8797 85.6382 40.8641C83.7342 40.9105 81.9229 41.6947 80.5873 43.051C79.2518 44.4072 78.4967 46.2292 78.4818 48.1315C78.5272 50.0131 79.2957 51.805 80.6281 53.1359C81.9605 54.4667 83.7544 55.2344 85.6382 55.2798C87.5427 55.2649 89.3667 54.5106 90.7245 53.1766C92.0823 51.8426 92.8674 50.0333 92.9138 48.1315ZM121.301 63.5002C119.251 63.5393 117.215 63.1696 115.31 62.4127C113.405 61.6558 111.671 60.5269 110.208 59.0922C107.203 56.3072 105.405 52.4596 105.199 48.3698C105.147 48.174 105.107 47.975 105.08 47.7741V30.7375L105.438 28.2356C105.668 27.4642 105.947 26.7081 106.272 25.972C106.474 25.5536 106.713 25.1548 106.988 24.7806C107.385 24.089 107.866 23.4488 108.419 22.8744C108.777 22.517 109.374 22.0404 110.208 21.3256C110.576 21.04 110.976 20.8 111.401 20.6108C112.128 20.2295 112.886 19.9106 113.667 19.6577C114.025 19.5385 114.502 19.4194 114.979 19.3003C116.172 19.1811 117.007 19.062 117.603 19.062H121.062C121.182 18.8237 121.301 18.4663 121.539 17.9898C121.778 17.5132 122.016 17.1558 122.136 16.9175C122.459 16.2383 123.006 15.6912 123.686 15.3687C124.016 15.2338 124.335 15.0745 124.64 14.8922C125.196 14.7051 125.787 14.6508 126.367 14.7336C126.947 14.8163 127.5 15.0339 127.98 15.3687C128.465 15.617 128.888 15.9706 129.218 16.4035C129.549 16.8365 129.778 17.3377 129.889 17.8706C130.127 18.6063 130.127 19.3985 129.889 20.1342C129.753 20.4633 129.594 20.7819 129.411 21.0873C128.815 22.517 128.099 23.9466 127.384 25.3763C127.061 26.0555 126.513 26.6026 125.833 26.9251C125.186 27.3159 124.443 27.522 123.686 27.5207H119.154C118.357 27.4828 117.558 27.5227 116.768 27.6399C116.411 27.759 116.053 27.759 115.814 27.8782C115.511 27.9897 115.229 28.1507 114.979 28.3547L114.264 29.0695C114.121 29.3564 113.962 29.6349 113.787 29.9035C113.69 30.2293 113.571 30.5478 113.429 30.8566V33.1202C115.765 31.8342 118.395 31.1773 121.062 31.214C125.36 31.2297 129.476 32.9418 132.515 35.977C135.554 39.0122 137.268 43.1243 137.283 47.4167C137.325 49.5492 136.922 51.6671 136.101 53.636C135.28 55.6048 134.058 57.3817 132.513 58.8539C131.069 60.3633 129.327 61.556 127.396 62.356C125.466 63.1559 123.39 63.5456 121.301 63.5002V63.5002ZM121.301 39.7919C119.284 39.7879 117.346 40.57 115.898 41.9718C114.45 43.3735 113.607 45.2843 113.548 47.2975V47.7741C113.593 49.7492 114.406 51.6294 115.814 53.0161C116.522 53.7527 117.375 54.3343 118.319 54.724C119.264 55.1137 120.279 55.303 121.301 55.2798C123.316 55.249 125.24 54.4358 126.664 53.0125C128.089 51.5892 128.904 49.6676 128.934 47.655C128.958 46.6345 128.768 45.6203 128.378 44.6769C127.988 43.7334 127.406 42.8813 126.668 42.1746C126.016 41.3931 125.193 40.7718 124.262 40.3586C123.332 39.9455 122.318 39.7516 121.301 39.7919V39.7919ZM156.725 63.3811C155.911 63.6188 155.068 63.7392 154.22 63.7385C153.748 63.8196 153.269 63.8594 152.789 63.8576C152.55 63.8576 152.431 63.8576 152.312 63.7385C152.193 63.6194 152.073 63.8576 151.835 63.8576C151.076 63.8201 150.319 63.7406 149.569 63.6194V74.6992C149.588 75.2512 149.492 75.8013 149.287 76.3142C149.082 76.827 148.771 77.2914 148.376 77.6776C147.997 78.0906 147.536 78.4205 147.023 78.6461C146.51 78.8717 145.955 78.9882 145.394 78.9881C144.84 79.0195 144.286 78.9291 143.771 78.7232C143.255 78.5174 142.792 78.2011 142.412 77.7967C142.017 77.4106 141.706 76.9462 141.501 76.4333C141.296 75.9204 141.2 75.3703 141.219 74.8183V42.8895C141.243 42.0446 141.363 41.2052 141.577 40.3876C141.754 39.5993 142.034 38.838 142.412 38.124C142.587 37.7153 142.786 37.3175 143.009 36.9326C143.485 36.2656 144.003 35.6289 144.559 35.0264C145.576 33.9658 146.798 33.1231 148.152 32.5496C149.505 31.9761 150.961 31.6838 152.431 31.6906H152.908C153.912 31.7022 154.912 31.822 155.89 32.048C156.506 32.1223 157.108 32.2827 157.679 32.5245C159.22 32.9961 160.671 33.7209 161.973 34.669C162.962 35.4173 163.88 36.2548 164.716 37.1709C165.569 38.145 166.291 39.2264 166.863 40.3876C167.102 40.9833 167.46 41.6981 167.817 42.6512C167.937 42.8895 168.056 43.366 168.294 43.9617L168.652 46.4636C168.733 46.9358 168.773 47.4141 168.772 47.8932V48.0124C168.7 49.0131 168.581 50.002 168.414 50.9908C168.315 51.601 168.155 52.1997 167.937 52.7779C167.47 54.3187 166.744 55.7691 165.79 57.0668C165.107 58.1081 164.261 59.0332 163.285 59.807C162.346 60.6493 161.304 61.3699 160.184 61.9515C159.452 62.3228 158.695 62.6413 157.918 62.9045C157.798 63.1428 157.321 63.262 156.725 63.3811V63.3811ZM151.716 55.3989H153.624C153.862 55.3989 154.459 55.1606 155.413 54.9223C155.981 54.6958 156.505 54.3734 156.964 53.9692C157.458 53.594 157.9 53.1531 158.276 52.6587C158.648 52.1776 158.967 51.6585 159.23 51.1099C159.447 50.4906 159.607 49.8525 159.707 49.2037C159.707 48.9655 159.826 48.7272 159.826 48.2506C159.852 47.9282 159.811 47.6039 159.707 47.2975C159.579 46.694 159.42 46.0976 159.23 45.5105C158.972 44.9595 158.652 44.4399 158.276 43.9617C157.9 43.4673 157.458 43.0264 156.964 42.6512C156.625 42.3264 156.217 42.0821 155.771 41.9364L155.413 41.6981C154.825 41.5085 154.228 41.3494 153.624 41.2215H151.716C151.391 41.2714 151.071 41.3511 150.761 41.4598C150.532 41.5407 150.289 41.581 150.046 41.579V54.9223C150.585 55.1351 151.145 55.2947 151.716 55.3989V55.3989ZM172.469 48.1315C172.451 46.0767 172.842 44.0388 173.62 42.1366C174.399 40.2344 175.548 38.5059 177.001 37.0517C178.433 35.5671 180.159 34.3974 182.069 33.6178C183.979 32.8382 186.031 32.4658 188.094 32.5245C190.151 32.5064 192.191 32.8973 194.096 33.6746C196 34.4518 197.73 35.5998 199.186 37.0517C200.673 38.4814 201.844 40.2055 202.624 42.1134C203.405 44.0214 203.777 46.0712 203.719 48.1315C203.737 50.1863 203.345 52.2242 202.567 54.1264C201.789 56.0286 200.64 57.7571 199.186 59.2113C197.755 60.696 196.029 61.8656 194.119 62.6452C192.209 63.4248 190.156 63.7972 188.094 63.7385C186.037 63.7566 183.997 63.3657 182.092 62.5884C180.188 61.8112 178.457 60.6632 177.001 59.2113C175.515 57.7816 174.344 56.0576 173.564 54.1496C172.783 52.2416 172.41 50.1918 172.469 48.1315V48.1315ZM195.369 48.1315C195.354 46.2089 194.582 44.3694 193.221 43.0099C191.86 41.6504 190.019 40.8797 188.094 40.8641C186.19 40.9105 184.379 41.6947 183.043 43.051C181.707 44.4072 180.952 46.2292 180.937 48.1315C180.983 50.0131 181.751 51.805 183.084 53.1359C184.416 54.4667 186.21 55.2344 188.094 55.2798C189.998 55.2649 191.822 54.5106 193.18 53.1766C194.538 51.8426 195.323 50.0333 195.369 48.1315V48.1315Z" fill="#3C3C3C"/>
<path d="M195.739 42.3295C195.254 42.006 194.827 41.6033 194.475 41.1381C193.756 40.3982 193.098 39.6014 192.507 38.7554C192.123 38.3171 191.802 37.828 191.553 37.3019C191.057 36.3667 190.635 35.3948 190.288 34.395C190.086 33.6801 189.919 33.1083 189.823 32.7032C189.579 31.4909 189.447 30.2585 189.43 29.0219V14.6658C189.418 13.9056 189.566 13.1513 189.864 12.4516C190.162 11.7519 190.603 11.1222 191.159 10.6032C191.707 10.0541 192.36 9.62122 193.08 9.3305C193.799 9.03979 194.57 8.89726 195.346 8.91148C196.117 8.89518 196.883 9.03689 197.596 9.32786C198.31 9.61884 198.957 10.0529 199.496 10.6032C200.043 11.1276 200.476 11.7591 200.767 12.4581C201.059 13.1571 201.203 13.9087 201.19 14.6658V27.8424C201.177 28.5582 201.204 29.2743 201.274 29.9869C201.358 30.4866 201.49 30.9772 201.667 31.4523C201.774 31.6071 201.918 31.8335 202.097 32.1433C202.244 32.3582 202.364 32.5902 202.454 32.8343L203.564 33.9065C203.809 33.9985 204.045 34.1142 204.267 34.252C204.589 34.4307 204.828 34.5618 204.983 34.669C205.472 34.8381 205.975 34.9657 206.486 35.0502H208.144C208.406 35.0502 208.931 34.8715 209.718 34.669L210.398 34.252C210.607 34.1115 210.831 33.9956 211.066 33.9065L211.424 33.5133C211.546 33.3772 211.677 33.2498 211.817 33.1321C211.948 33.0368 212.068 32.9296 212.175 32.8343C212.378 32.5245 212.64 32.0599 212.962 31.4523C213.142 30.9782 213.274 30.4873 213.356 29.9869C213.348 29.8361 213.348 29.685 213.356 29.5342C213.356 29.3316 213.356 29.1767 213.356 29.0695V14.5109C213.35 13.762 213.501 13.0201 213.798 12.3328C214.096 11.6455 214.535 11.028 215.085 10.5198C215.624 9.97939 216.266 9.55228 216.973 9.26376C217.679 8.97523 218.437 8.83114 219.2 8.83999C219.975 8.82827 220.744 8.97078 221.463 9.2592C222.182 9.54762 222.836 9.97617 223.387 10.5198C223.938 11.028 224.376 11.6455 224.674 12.3328C224.972 13.0201 225.122 13.762 225.116 14.5109V58.6633C225.122 59.4104 224.971 60.1505 224.673 60.8358C224.376 61.5212 223.937 62.1366 223.387 62.6424C222.848 63.1798 222.208 63.6059 221.504 63.8961C220.8 64.1864 220.045 64.3353 219.284 64.3342C218.519 64.3435 217.761 64.1985 217.053 63.9078C216.346 63.6171 215.705 63.1867 215.169 62.6424C214.629 62.1313 214.202 61.5136 213.914 60.8285C213.627 60.1434 213.486 59.406 213.499 58.6633V45.4747L213.416 45.5581H213.261C211.628 46.1055 209.924 46.4144 208.203 46.4755C207.575 46.5707 206.935 46.5707 206.307 46.4755C205.222 46.3792 204.143 46.2241 203.075 46.0109C202.475 45.9008 201.891 45.7209 201.333 45.4747C200.329 45.1118 199.353 44.6779 198.411 44.1761C197.461 43.6506 196.566 43.0321 195.739 42.3295V42.3295Z" fill="#5CE5B7"/>
<path d="M250.474 64.7154C247.782 64.7653 245.108 64.2718 242.612 63.2646C240.115 62.2574 237.848 60.7572 235.946 58.8539C234.025 57.0381 232.504 54.8434 231.477 52.4089C230.45 49.9745 229.941 47.3535 229.983 44.7123C229.941 42.071 230.45 39.45 231.477 37.0156C232.504 34.5811 234.025 32.3864 235.946 30.5707C239.403 27.2344 243.905 25.1882 248.694 24.776C253.483 24.3638 258.269 25.6106 262.246 28.307C262.645 27.2572 263.346 26.3491 264.262 25.6979C265.163 25.0363 266.256 24.6851 267.375 24.6972C268.086 24.6884 268.792 24.8231 269.45 25.0934C270.108 25.3636 270.704 25.7637 271.203 26.2698C271.719 26.7415 272.13 27.3161 272.409 27.9564C272.689 28.5967 272.831 29.2884 272.826 29.9869V47.0831C272.933 47.3929 273.076 47.8575 273.267 48.4651C273.458 49.0727 273.589 49.5135 273.696 49.7756C274.436 51.7136 275.251 54.0963 276.141 56.9238C276.345 57.5974 276.408 58.3058 276.326 59.0048C276.244 59.7037 276.019 60.3783 275.664 60.9864C274.934 62.167 273.776 63.0205 272.432 63.3692C271.735 63.5705 271.003 63.6269 270.283 63.5347C269.563 63.4424 268.869 63.2037 268.245 62.8331C267.031 62.1467 266.125 61.0209 265.717 59.6878C265.688 59.5527 265.635 59.4237 265.562 59.3066C265.497 59.1854 265.445 59.0576 265.407 58.9253C265.355 58.8005 265.327 58.6672 265.323 58.5322C263.409 60.53 261.101 62.1107 258.546 63.1748C255.99 64.2388 253.242 64.7634 250.474 64.7154V64.7154ZM243.52 37.8857C242.596 38.7658 241.86 39.824 241.358 40.9964C240.855 42.1688 240.596 43.4309 240.596 44.7063C240.596 45.9817 240.855 47.2438 241.358 48.4162C241.86 49.5886 242.596 50.6469 243.52 51.5269C245.413 53.3027 247.913 54.2913 250.51 54.2913C253.107 54.2913 255.606 53.3027 257.499 51.5269C258.423 50.6469 259.159 49.5886 259.661 48.4162C260.164 47.2438 260.423 45.9817 260.423 44.7063C260.423 43.4309 260.164 42.1688 259.661 40.9964C259.159 39.824 258.423 38.7658 257.499 37.8857C255.602 36.1178 253.104 35.1346 250.51 35.1346C247.915 35.1346 245.417 36.1178 243.52 37.8857V37.8857Z" fill="#5CE5B7"/>
<path d="M295.726 53.8382V35.7412H286.566C285.858 35.7487 285.155 35.6168 284.498 35.3531C283.842 35.0894 283.243 34.6991 282.737 34.2043C282.221 33.7409 281.809 33.1729 281.529 32.5382C281.249 31.9034 281.108 31.2165 281.115 30.523C281.106 29.8295 281.24 29.1415 281.509 28.502C281.778 27.8625 282.176 27.2851 282.677 26.8059C283.18 26.2938 283.782 25.8899 284.447 25.6195C285.111 25.349 285.824 25.2175 286.542 25.2333H315.525C316.238 25.2256 316.945 25.3608 317.605 25.6309C318.265 25.9011 318.864 26.3006 319.366 26.8059C319.878 27.2801 320.285 27.8554 320.562 28.4953C320.84 29.1352 320.98 29.8258 320.976 30.523C320.985 31.2157 320.846 31.9023 320.569 32.5371C320.291 33.1719 319.881 33.7403 319.366 34.2043C318.346 35.1995 316.975 35.7519 315.549 35.7412H306.532V58.7347C306.537 59.4298 306.398 60.1184 306.125 60.7578C305.852 61.3972 305.451 61.9738 304.946 62.4518C304.444 62.964 303.841 63.3678 303.177 63.6383C302.512 63.9088 301.799 64.0402 301.081 64.0244C300.375 64.0353 299.674 63.9014 299.022 63.6309C298.369 63.3604 297.779 62.9591 297.288 62.4518C296.781 61.9755 296.378 61.3993 296.105 60.7595C295.832 60.1196 295.695 59.4302 295.702 58.7347L295.726 53.8382Z" fill="#5CE5B7"/>
</svg>
